<mxfile host="app.diagrams.net" modified="2025-01-10T12:57:14.684Z" agent="Mozilla/5.0 (Windows NT 10.0; Win64; x64; rv:134.0) Gecko/20100101 Firefox/134.0" version="24.3.1" etag="TGuqgdjm6BcH5Wgx3nEF" type="github">
  <diagram name="第 1 页" id="dHkBDI9f2J-48Ag7LJ06">
    <mxGraphModel>
      <root>
        <mxCell id="0" />
        <mxCell id="1" parent="0" />
      </root>
    </mxGraphModel>
  </diagram>
</mxfile>
